/* XPM */
static char * WIKIPEDIA_xpm[] = {
"49 49 2 1",
"a	c #ffffff",
"b	c #000000",
"aaaaaaaaaaaaaaaaaaaaaaaaaaaaaaaaaaaaaaaaaaaaaaaaa",
"aaaaaaaaaaaaaaaaaaaabbbbbbbbbaaaaaaaaaaaaaaaaaaaa",
"aaaaaaaaaaaaaaaabbbbaaaaaaaaabbbbaaaaaaaaaaaaaaaa",
"aaaaaaaaaaaaaabbaaaaaaaaaaaaaaaaabbaaaaaaaaaaaaaa",
"aaaaaaaaaaaabbaaaaaaaaaaaaaaaaaaaaabbaaaaaaaaaaaa",
"aaaaaaaaaaabaaaaaaaaaaaaaaaaaaaaaaaaabaaaaaaaaaaa",
"aaaaaaaaaabaaaaaaaaaaaaaaaaaaaaaaaaaaabaaaaaaaaaa",
"aaaaaaaabbaaaaaaaaaaaaaaaaaaaaaaaaaaaaabbaaaaaaaa",
"aaaaaaabaaaaaaaaaaaaaaaaaaaaaaaaaaaaaaaaabaaaaaaa",
"aaaaaaabaaaaaaaaaaaaaaaaaaaaaaaaaaaaaaaaabaaaaaaa",
"aaaaaabaaaaaaaaaaaaaaaaaaaaaaaaaaaaaaaaaaabaaaaaa",
"aaaaabaaaaaaaaaaaaaaaaaaaaaaaaaaaaaaaaaaaaabaaaaa",
"aaaabaaaaaaaaaaaaaaaaaaaaaaaaaaaaaaaaaaaaaaabaaaa",
"aaaabaaaaaaaaaaaaaaaaaaaaaaaaaaaaaaaaaaaaaaabaaaa",
"aaabaaaaaaaaaaaaaaaaaaaaaaaaaaaaaaaaaaaaaaaaabaaa",
"aaabaaaaaaaaaaaaaaaaaaaaaaaaaaaaaaaaaaaaaaaaabaaa",
"aabaaaaaaaaaaaaaaaaaaaaaaaaaaaaaaaaaaaaaaaaaaabaa",
"aabaaaaaaaaaaaaaaaaaaaaaaaaaaaaaaaaaaaaaaaaaaabaa",
"aabaaaaaaaaaaaaaaaaaaaaaaaaaaaaaaaaaaaaaaaaaaabaa",
"aabaaaaaaaaaaaaaaaaaaaaaaaaaaaaaaaaaaaaaaaaaaabaa",
"abaaaaaaaaaaaaaaaaaaaaaaaaaaaaaaaaaaaaaaaaaaaaaba",
"abaaaaaaaaaaaaaaaaaaaaaaaaaaaaaaaaaaaaaaaaaaaaaba",
"abaaaaaaaaaaaaaaaaaaaaaaaaaaaaaaaaaaaaaaaaaaaaaba",
"abaaaaaaaaaaaaaaaaaaaaaaaaaaaaaaaaaaaaaaaaaaaaaba",
"abaaaaaaaaaaaaaaaaaaaaaaaaaaaaaaaaaaaaaaaaaaaaaba",
"abaaaaaaaaaaaaaaaaaaaaaaaaaaaaaaaaaaaaaaaaaaaaaba",
"abaaaaaaaaaaaaaaaaaaaaaaaaaaaaaaaaaaaaaaaaaaaaaba",
"abaaaaaaaaaaaaaaaaaaaaaaaaaaaaaaaaaaaaaaaaaaaaaba",
"abaaaaaaaaaaaaaaaaaaaaaaaaaaaaaaaaaaaaaaaaaaaaaba",
"aabaaaaaaaaaaaaaaaaaaaaaaaaaaaaaaaaaaaaaaaaaaabaa",
"aabaaaaaaaaaaaaaaaaaaaaaaaaaaaaaaaaaaaaaaaaaaabaa",
"aabaaaaaaaaaaaaaaaaaaaaaaaaaaaaaaaaaaaaaaaaaaabaa",
"aabaaaaaaaaaaaaaaaaaaaaaaaaaaaaaaaaaaaaaaaaaaabaa",
"aaabaaaaaaaaaaaaaaaaaaaaaaaaaaaaaaaaaaaaaaaaabaaa",
"aaabaaaaaaaaaaaaaaaaaaaaaaaaaaaaaaaaaaaaaaaaabaaa",
"aaaabaaaaaaaaaaaaaaaaaaaaaaaaaaaaaaaaaaaaaaabaaaa",
"aaaabaaaaaaaaaaaaaaaaaaaaaaaaaaaaaaaaaaaaaaabaaaa",
"aaaaabaaaaaaaaaaaaaaaaaaaaaaaaaaaaaaaaaaaaabaaaaa",
"aaaaaabaaaaaaaaaaaaaaaaaaaaaaaaaaaaaaaaaaabaaaaaa",
"aaaaaaabaaaaaaaaaaaaaaaaaaaaaaaaaaaaaaaaabaaaaaaa",
"aaaaaaabaaaaaaaaaaaaaaaaaaaaaaaaaaaaaaaaabaaaaaaa",
"aaaaaaaabbaaaaaaaaaaaaaaaaaaaaaaaaaaaaabbaaaaaaaa",
"aaaaaaaaaabaaaaaaaaaaaaaaaaaaaaaaaaaaabaaaaaaaaaa",
"aaaaaaaaaaabaaaaaaaaaaaaaaaaaaaaaaaaabaaaaaaaaaaa",
"aaaaaaaaaaaabbaaaaaaaaaaaaaaaaaaaaabbaaaaaaaaaaaa",
"aaaaaaaaaaaaaabbaaaaaaaaaaaaaaaaabbaaaaaaaaaaaaaa",
"aaaaaaaaaaaaaaaabbbbaaaaaaaaabbbbaaaaaaaaaaaaaaaa",
"aaaaaaaaaaaaaaaaaaaabbbbbbbbbaaaaaaaaaaaaaaaaaaaa",
"aaaaaaaaaaaaaaaaaaaaaaaaaaaaaaaaaaaaaaaaaaaaaaaaa",
};
